<?xml version="1.0" ?><svg enable-background="new 0 0 512 512" id="Layer_1" version="1.1" viewBox="0 0 512 512" xml:space="preserve" xmlns="http://www.w3.org/2000/svg" xmlns:xlink="http://www.w3.org/1999/xlink"><g><g><linearGradient gradientUnits="userSpaceOnUse" id="SVGID_1_" x1="-0.0000027" x2="512" y1="256" y2="256"><stop offset="0" style="stop-color:#E24263"/><stop offset="1" style="stop-color:#DD1E47"/></linearGradient><circle cx="256" cy="256" fill="url(#SVGID_1_)" r="256"/><linearGradient gradientUnits="userSpaceOnUse" id="SVGID_2_" x1="42.6666641" x2="469.3333435" y1="256.0005188" y2="256.0005188"><stop offset="0" style="stop-color:#DD1E47"/><stop offset="1" style="stop-color:#E24263"/></linearGradient><path d="M256,469.3338623c-117.6314697,0-213.3333435-95.7018738-213.3333435-213.3333435    S138.3685303,42.6671982,256,42.6671982c117.636261,0,213.3333435,95.7018661,213.3333435,213.333313    S373.636261,469.3338623,256,469.3338623z" fill="url(#SVGID_2_)"/></g><g><path d="M241.565506,211.7109375C230.8979797,189.13974,220.2309875,166.5706635,209.5635223,144L144,144.2720032    c15.8890686,33.6197357,31.7776031,67.2362671,47.6669922,100.8554688    C203.9705048,228.8757324,221.4250183,216.9082642,241.565506,211.7109375z" opacity="0.3"/><path d="M336.3493347,245.0912018C352.2325439,211.4848022,368.1167908,177.8789368,384,144.2720032L318.43573,144    c-10.6650696,22.566925-21.3312073,45.1338654-31.9967346,67.6997375    C306.5808105,216.8906708,324.0394592,228.845871,336.3493347,245.0912018z" opacity="0.3"/><path d="M264.0210266,218.7578735c-44.8930206,0-81.2855682,36.990921-81.2855682,82.6218567    C182.7354584,347.0101318,219.128006,384,264.0210266,384c44.8930969,0,81.2861633-36.9898682,81.2861633-82.6202698    C345.3071899,255.7487946,308.9141235,218.7578735,264.0210266,218.7578735z M290.6499634,346.9957275h-51.2574615v-10h20.6274872    V277.762146h-20.6274872v-10h20.6274872v-9.0288086h10v78.2623901h20.6299744V346.9957275z" opacity="0.3"/></g><g><path d="M233.5654907,203.7109375C222.8979797,181.13974,212.2309875,158.5706635,201.5635223,136L136,136.2720032    c15.8890686,33.6197357,31.7776031,67.2362671,47.6672058,100.8554688    C195.9705048,220.8757324,213.4250183,208.9082642,233.5654907,203.7109375z" fill="#FFFFFF"/><path d="M328.3493347,237.0912018C344.2325439,203.4848022,360.1167908,169.8789368,376,136.2720032L310.43573,136    c-10.6650696,22.566925-21.3312073,45.1338654-31.9967346,67.6997375    C298.5808105,208.8906708,316.0394592,220.845871,328.3493347,237.0912018z" fill="#FFFFFF"/><path d="M256.0210266,210.7578735c-44.8930206,0-81.2855682,36.990921-81.2855682,82.6218567    C174.7354584,339.0101318,211.128006,376,256.0210266,376c44.8930969,0,81.2861633-36.9898682,81.2861633-82.6202698    C337.3071899,247.7487946,300.9141235,210.7578735,256.0210266,210.7578735z M282.6499634,338.9957275h-51.2574768v-10h20.6275177    V269.762146h-20.6275177v-10h20.6275177v-9.0288086h9.9999847v78.2623901h20.6299744V338.9957275z" fill="#FFFFFF"/></g></g></svg>