<?xml version="1.0" ?><svg enable-background="new 0 0 512 512" id="Layer_1" version="1.1" viewBox="0 0 512 512" xml:space="preserve" xmlns="http://www.w3.org/2000/svg" xmlns:xlink="http://www.w3.org/1999/xlink"><g><g><linearGradient gradientUnits="userSpaceOnUse" id="SVGID_1_" x1="-0.0000027" x2="512" y1="256" y2="256"><stop offset="0" style="stop-color:#8DC63F"/><stop offset="1" style="stop-color:#76B83F"/></linearGradient><circle cx="256" cy="256" fill="url(#SVGID_1_)" r="256"/><linearGradient gradientUnits="userSpaceOnUse" id="SVGID_2_" x1="42.6666641" x2="469.3333435" y1="256.0005188" y2="256.0005188"><stop offset="0" style="stop-color:#76B83F"/><stop offset="1" style="stop-color:#8DC63F"/></linearGradient><path d="M256,469.3338623c-117.631012,0-213.3333435-95.7023926-213.3333435-213.3333435    c0-117.6314545,95.7023239-213.333313,213.3333435-213.333313c117.6362,0,213.3333435,95.7018661,213.3333435,213.333313    C469.3333435,373.6314697,373.6362,469.3338623,256,469.3338623z" fill="url(#SVGID_2_)"/></g><g><path d="M241.5679932,211.7141266c-10.6666565-22.5674591-21.3323364-45.1365204-31.9990082-67.7039948    l-65.5583191,0.2725372c15.8880005,33.6149292,31.7753906,67.2314606,47.6633911,100.8469238    C203.9764557,228.8784027,221.4293365,216.9130707,241.5679932,211.7141266z" opacity="0.3"/><path d="M336.3439331,245.0912018c15.8821106-33.6026764,31.7637329-67.2069397,47.6458435-100.8085327    l-65.5583801-0.2725372c-10.6650696,22.56427-21.3296204,45.1290741-31.9946594,67.694397    C306.5775146,216.8933258,324.0345764,228.8490601,336.3439331,245.0912018z" opacity="0.3"/><path d="M264.0213318,218.7621307c-44.8891449,0-81.2784729,36.9861298-81.2784729,82.613327    c0,45.6261292,36.389328,82.6138916,81.2784729,82.6138916c44.8889771,0,81.2788696-36.9877625,81.2788696-82.6138916    C345.3002014,255.7482605,308.9103088,218.7621307,264.0213318,218.7621307z M291.8607178,342.7818604l-27.839386-13.4202576    l-27.8395386,13.4202576l3.9546661-31.0575867l-21.1604614-22.7658691l30.2836609-5.7744141l14.761673-27.4906616    l14.7615356,27.4906616l30.2832031,5.7744141l-21.1600037,22.7658691L291.8607178,342.7818604z" opacity="0.3"/></g><g><path d="M233.5679932,203.7141266c-10.6666565-22.5674591-21.3323364-45.1365204-31.9990082-67.7039948    l-65.5583191,0.2725372c15.8880005,33.6149292,31.7753906,67.2314606,47.6633911,100.8469238    C195.9764557,220.8784027,213.4293365,208.9130707,233.5679932,203.7141266z" fill="#FFFFFF"/><path d="M328.3439331,237.0912018c15.8821106-33.6026764,31.7637329-67.2069397,47.6458435-100.8085327    l-65.5583801-0.2725372c-10.6650696,22.56427-21.3296204,45.1290741-31.9946594,67.694397    C298.5775146,208.8933258,316.0345764,220.8490601,328.3439331,237.0912018z" fill="#FFFFFF"/><path d="M256.0213318,210.7621307c-44.8891449,0-81.2784729,36.9861298-81.2784729,82.613327    c0,45.6261292,36.389328,82.6138916,81.2784729,82.6138916c44.8889771,0,81.2788696-36.9877625,81.2788696-82.6138916    C337.3002014,247.7482605,300.9103088,210.7621307,256.0213318,210.7621307z M283.8607178,334.7818604l-27.839386-13.4202576    l-27.8395386,13.4202576l3.9546661-31.0575867l-21.1604614-22.7658691l30.2836609-5.7744141l14.761673-27.4906616    l14.7615356,27.4906616l30.2832031,5.7744141l-21.1600037,22.7658691L283.8607178,334.7818604z" fill="#FFFFFF"/></g></g></svg>